<svg xmlns="http://www.w3.org/2000/svg" viewBox="0 0 1280 720" width="1280" height="720">
  <defs>
    <linearGradient id="base_2131" x1="0%" y1="0%" x2="100%" y2="100%">
      <stop offset="0%" stop-color="rgb(17,17,17)"/>
      <stop offset="100%" stop-color="#000000"/>
    </linearGradient>
    <radialGradient id="vignette_2131" cx="50%" cy="46%" r="85%">
      <stop offset="0%" stop-color="#000000" stop-opacity="0"/>
      <stop offset="70%" stop-color="#000000" stop-opacity="0.1"/>
      <stop offset="100%" stop-color="#000000" stop-opacity="0.6"/>
    </radialGradient>
    <linearGradient id="sheen_2131" x1="0%" y1="0%" x2="59%" y2="1%">
      <stop offset="0%" stop-color="#FFF6E8" stop-opacity="0.1"/>
      <stop offset="45%" stop-color="#FFF6E8" stop-opacity="0"/>
      <stop offset="100%" stop-color="#FFF6E8" stop-opacity="0.14"/>
    </linearGradient>
    <filter id="grain_2131">
      <feTurbulence type="fractalNoise" baseFrequency="0.85" numOctaves="2" seed="2131" stitchTiles="stitch" result="noise"/>
      <feColorMatrix in="noise" type="matrix" values="0 0 0 0 1  0 0 0 0 1  0 0 0 0 1  0 0 0 0.06 0"/>
    </filter>
    <filter id="b2131_0" x="-150%" y="-150%" width="400%" height="400%"><feGaussianBlur stdDeviation="0.175"/></filter>
    <filter id="b2131_1" x="-150%" y="-150%" width="400%" height="400%"><feGaussianBlur stdDeviation="1.431"/></filter>
    <filter id="b2131_2" x="-150%" y="-150%" width="400%" height="400%"><feGaussianBlur stdDeviation="0.665"/></filter>
    <filter id="b2131_3" x="-150%" y="-150%" width="400%" height="400%"><feGaussianBlur stdDeviation="1.578"/></filter>
  </defs>
  <rect width="1280" height="720" fill="url(#base_2131)"/>
  <g transform="translate(213.6,372.9) rotate(12.9) scale(72.69)" filter="url(#b2131_0)" opacity="0.565">
      <line x1="3" y1="9" x2="9" y2="3" stroke="#FFF6E8" stroke-width="0.9" stroke-linecap="round"/>
    </g>
  <g transform="translate(665.9,317.6) rotate(247.8) scale(38.23)" filter="url(#b2131_1)" opacity="0.233">
      <line x1="3" y1="9" x2="9" y2="3" stroke="#FFF6E8" stroke-width="0.9" stroke-linecap="round"/>
    </g>
  <g transform="translate(484.7,427.1) rotate(39.1) scale(40.04)" filter="url(#b2131_2)" opacity="0.205">
      <line x1="3" y1="9" x2="9" y2="3" stroke="#FFF6E8" stroke-width="0.9" stroke-linecap="round"/>
    </g>
  <g transform="translate(620.4,221.1) rotate(336.7) scale(22.11)" filter="url(#b2131_3)" opacity="0.150">
      <line x1="3" y1="9" x2="9" y2="3" stroke="#FFF6E8" stroke-width="0.9" stroke-linecap="round"/>
    </g>
  <rect width="1280" height="720" fill="url(#sheen_2131)"/>
  <rect width="1280" height="720" fill="url(#vignette_2131)"/>
  <rect x="28" y="28" width="1224" height="664" fill="none" stroke="rgba(255,255,255,0.1)" stroke-width="1"/>
  <rect width="1280" height="720" filter="url(#grain_2131)" opacity="0.5"/>
  
</svg>