<svg xmlns="http://www.w3.org/2000/svg" viewBox="0 0 1280 720" width="1280" height="720">
  <defs>
    <linearGradient id="base_2114" x1="0%" y1="0%" x2="100%" y2="100%">
      <stop offset="0%" stop-color="rgb(26,26,26)"/>
      <stop offset="100%" stop-color="#000000"/>
    </linearGradient>
    <radialGradient id="vignette_2114" cx="50%" cy="46%" r="85%">
      <stop offset="0%" stop-color="#000000" stop-opacity="0"/>
      <stop offset="70%" stop-color="#000000" stop-opacity="0.1"/>
      <stop offset="100%" stop-color="#000000" stop-opacity="0.6"/>
    </radialGradient>
    <linearGradient id="sheen_2114" x1="0%" y1="0%" x2="49%" y2="0%">
      <stop offset="0%" stop-color="#FFF6E8" stop-opacity="0.1"/>
      <stop offset="45%" stop-color="#FFF6E8" stop-opacity="0"/>
      <stop offset="100%" stop-color="#FFF6E8" stop-opacity="0.14"/>
    </linearGradient>
    <filter id="grain_2114">
      <feTurbulence type="fractalNoise" baseFrequency="0.85" numOctaves="2" seed="2114" stitchTiles="stitch" result="noise"/>
      <feColorMatrix in="noise" type="matrix" values="0 0 0 0 1  0 0 0 0 1  0 0 0 0 1  0 0 0 0.06 0"/>
    </filter>
    <filter id="b2114_0" x="-150%" y="-150%" width="400%" height="400%"><feGaussianBlur stdDeviation="0.115"/></filter>
    <filter id="b2114_1" x="-150%" y="-150%" width="400%" height="400%"><feGaussianBlur stdDeviation="0.812"/></filter>
    <filter id="b2114_2" x="-150%" y="-150%" width="400%" height="400%"><feGaussianBlur stdDeviation="0.847"/></filter>
    <filter id="b2114_3" x="-150%" y="-150%" width="400%" height="400%"><feGaussianBlur stdDeviation="1.528"/></filter>
  </defs>
  <rect width="1280" height="720" fill="url(#base_2114)"/>
  <g transform="translate(926.8,274.9) rotate(237.5) scale(78.99)" filter="url(#b2114_0)" opacity="0.423">
      <line x1="3" y1="9" x2="9" y2="3" stroke="#FFF6E8" stroke-width="0.9" stroke-linecap="round"/>
    </g>
  <g transform="translate(1061.7,135.6) rotate(271.4) scale(49.87)" filter="url(#b2114_1)" opacity="0.202">
      <line x1="3" y1="9" x2="9" y2="3" stroke="#FFF6E8" stroke-width="0.9" stroke-linecap="round"/>
    </g>
  <g transform="translate(568.7,191.8) rotate(3.8) scale(50.89)" filter="url(#b2114_2)" opacity="0.190">
      <line x1="3" y1="9" x2="9" y2="3" stroke="#FFF6E8" stroke-width="0.9" stroke-linecap="round"/>
    </g>
  <g transform="translate(284.1,484.4) rotate(58.3) scale(33.23)" filter="url(#b2114_3)" opacity="0.120">
      <line x1="3" y1="9" x2="9" y2="3" stroke="#FFF6E8" stroke-width="0.9" stroke-linecap="round"/>
    </g>
  <rect width="1280" height="720" fill="url(#sheen_2114)"/>
  <rect width="1280" height="720" fill="url(#vignette_2114)"/>
  <rect x="28" y="28" width="1224" height="664" fill="none" stroke="rgba(255,255,255,0.1)" stroke-width="1"/>
  <rect width="1280" height="720" filter="url(#grain_2114)" opacity="0.5"/>
  
</svg>