<svg xmlns="http://www.w3.org/2000/svg" viewBox="0 0 1280 720" width="1280" height="720">
  <defs>
    <linearGradient id="base_2017" x1="0%" y1="0%" x2="100%" y2="100%">
      <stop offset="0%" stop-color="rgb(29,29,29)"/>
      <stop offset="100%" stop-color="#000000"/>
    </linearGradient>
    <radialGradient id="vignette_2017" cx="50%" cy="46%" r="85%">
      <stop offset="0%" stop-color="#000000" stop-opacity="0"/>
      <stop offset="70%" stop-color="#000000" stop-opacity="0.1"/>
      <stop offset="100%" stop-color="#000000" stop-opacity="0.6"/>
    </radialGradient>
    <linearGradient id="sheen_2017" x1="0%" y1="0%" x2="0%" y2="45%">
      <stop offset="0%" stop-color="#FFF6E8" stop-opacity="0.1"/>
      <stop offset="45%" stop-color="#FFF6E8" stop-opacity="0"/>
      <stop offset="100%" stop-color="#FFF6E8" stop-opacity="0.14"/>
    </linearGradient>
    <filter id="grain_2017">
      <feTurbulence type="fractalNoise" baseFrequency="0.85" numOctaves="2" seed="2017" stitchTiles="stitch" result="noise"/>
      <feColorMatrix in="noise" type="matrix" values="0 0 0 0 1  0 0 0 0 1  0 0 0 0 1  0 0 0 0.06 0"/>
    </filter>
    <filter id="b2017_0" x="-150%" y="-150%" width="400%" height="400%"><feGaussianBlur stdDeviation="0.240"/></filter>
    <filter id="b2017_1" x="-150%" y="-150%" width="400%" height="400%"><feGaussianBlur stdDeviation="1.285"/></filter>
    <filter id="b2017_2" x="-150%" y="-150%" width="400%" height="400%"><feGaussianBlur stdDeviation="1.420"/></filter>
    <filter id="b2017_3" x="-150%" y="-150%" width="400%" height="400%"><feGaussianBlur stdDeviation="1.080"/></filter>
  </defs>
  <rect width="1280" height="720" fill="url(#base_2017)"/>
  <g transform="translate(573.4,225.0) rotate(206.2) scale(54.06)" filter="url(#b2017_0)" opacity="0.479">
      <line x1="3" y1="9" x2="9" y2="3" stroke="#FFF6E8" stroke-width="0.9" stroke-linecap="round"/>
    </g>
  <g transform="translate(378.0,290.3) rotate(198.3) scale(38.97)" filter="url(#b2017_1)" opacity="0.229">
      <line x1="3" y1="9" x2="9" y2="3" stroke="#FFF6E8" stroke-width="0.9" stroke-linecap="round"/>
    </g>
  <g transform="translate(976.4,124.3) rotate(47.6) scale(22.65)" filter="url(#b2017_2)" opacity="0.209">
      <line x1="3" y1="9" x2="9" y2="3" stroke="#FFF6E8" stroke-width="0.9" stroke-linecap="round"/>
    </g>
  <g transform="translate(826.3,201.8) rotate(83.2) scale(51.63)" filter="url(#b2017_3)" opacity="0.140">
      <line x1="3" y1="9" x2="9" y2="3" stroke="#FFF6E8" stroke-width="0.9" stroke-linecap="round"/>
    </g>
  <rect width="1280" height="720" fill="url(#sheen_2017)"/>
  <rect width="1280" height="720" fill="url(#vignette_2017)"/>
  <rect x="28" y="28" width="1224" height="664" fill="none" stroke="rgba(255,255,255,0.1)" stroke-width="1"/>
  <rect width="1280" height="720" filter="url(#grain_2017)" opacity="0.5"/>
  
</svg>