<svg xmlns="http://www.w3.org/2000/svg" viewBox="0 0 1280 720" width="1280" height="720">
  <defs>
    <linearGradient id="base_2502" x1="0%" y1="0%" x2="100%" y2="100%">
      <stop offset="0%" stop-color="rgb(21,21,21)"/>
      <stop offset="100%" stop-color="#000000"/>
    </linearGradient>
    <radialGradient id="vignette_2502" cx="50%" cy="46%" r="85%">
      <stop offset="0%" stop-color="#000000" stop-opacity="0"/>
      <stop offset="70%" stop-color="#000000" stop-opacity="0.1"/>
      <stop offset="100%" stop-color="#000000" stop-opacity="0.6"/>
    </radialGradient>
    <linearGradient id="sheen_2502" x1="0%" y1="0%" x2="29%" y2="5%">
      <stop offset="0%" stop-color="#FFF6E8" stop-opacity="0.1"/>
      <stop offset="45%" stop-color="#FFF6E8" stop-opacity="0"/>
      <stop offset="100%" stop-color="#FFF6E8" stop-opacity="0.14"/>
    </linearGradient>
    <filter id="grain_2502">
      <feTurbulence type="fractalNoise" baseFrequency="0.85" numOctaves="2" seed="2502" stitchTiles="stitch" result="noise"/>
      <feColorMatrix in="noise" type="matrix" values="0 0 0 0 1  0 0 0 0 1  0 0 0 0 1  0 0 0 0.06 0"/>
    </filter>
    <filter id="b2502_0" x="-150%" y="-150%" width="400%" height="400%"><feGaussianBlur stdDeviation="0.125"/></filter>
    <filter id="b2502_1" x="-150%" y="-150%" width="400%" height="400%"><feGaussianBlur stdDeviation="1.036"/></filter>
    <filter id="b2502_2" x="-150%" y="-150%" width="400%" height="400%"><feGaussianBlur stdDeviation="1.100"/></filter>
    <filter id="b2502_3" x="-150%" y="-150%" width="400%" height="400%"><feGaussianBlur stdDeviation="1.116"/></filter>
  </defs>
  <rect width="1280" height="720" fill="url(#base_2502)"/>
  <g transform="translate(1018.8,431.6) rotate(358.6) scale(87.73)" filter="url(#b2502_0)" opacity="0.635">
      <line x1="3" y1="9" x2="9" y2="3" stroke="#FFF6E8" stroke-width="0.9" stroke-linecap="round"/>
    </g>
  <g transform="translate(423.4,251.8) rotate(268.2) scale(46.78)" filter="url(#b2502_1)" opacity="0.143">
      <line x1="3" y1="9" x2="9" y2="3" stroke="#FFF6E8" stroke-width="0.9" stroke-linecap="round"/>
    </g>
  <g transform="translate(844.6,475.0) rotate(300.4) scale(37.36)" filter="url(#b2502_2)" opacity="0.147">
      <line x1="3" y1="9" x2="9" y2="3" stroke="#FFF6E8" stroke-width="0.9" stroke-linecap="round"/>
    </g>
  <g transform="translate(263.3,260.8) rotate(97.9) scale(44.08)" filter="url(#b2502_3)" opacity="0.230">
      <line x1="3" y1="9" x2="9" y2="3" stroke="#FFF6E8" stroke-width="0.9" stroke-linecap="round"/>
    </g>
  <rect width="1280" height="720" fill="url(#sheen_2502)"/>
  <rect width="1280" height="720" fill="url(#vignette_2502)"/>
  <rect x="28" y="28" width="1224" height="664" fill="none" stroke="rgba(255,255,255,0.1)" stroke-width="1"/>
  <rect width="1280" height="720" filter="url(#grain_2502)" opacity="0.5"/>
  
</svg>