<svg xmlns="http://www.w3.org/2000/svg" viewBox="0 0 1280 720" width="1280" height="720">
  <defs>
    <linearGradient id="base_2485" x1="0%" y1="0%" x2="100%" y2="100%">
      <stop offset="0%" stop-color="rgb(22,22,22)"/>
      <stop offset="100%" stop-color="#000000"/>
    </linearGradient>
    <radialGradient id="vignette_2485" cx="50%" cy="46%" r="85%">
      <stop offset="0%" stop-color="#000000" stop-opacity="0"/>
      <stop offset="70%" stop-color="#000000" stop-opacity="0.1"/>
      <stop offset="100%" stop-color="#000000" stop-opacity="0.6"/>
    </radialGradient>
    <linearGradient id="sheen_2485" x1="0%" y1="0%" x2="42%" y2="99%">
      <stop offset="0%" stop-color="#FFF6E8" stop-opacity="0.1"/>
      <stop offset="45%" stop-color="#FFF6E8" stop-opacity="0"/>
      <stop offset="100%" stop-color="#FFF6E8" stop-opacity="0.14"/>
    </linearGradient>
    <filter id="grain_2485">
      <feTurbulence type="fractalNoise" baseFrequency="0.85" numOctaves="2" seed="2485" stitchTiles="stitch" result="noise"/>
      <feColorMatrix in="noise" type="matrix" values="0 0 0 0 1  0 0 0 0 1  0 0 0 0 1  0 0 0 0.06 0"/>
    </filter>
    <filter id="b2485_0" x="-150%" y="-150%" width="400%" height="400%"><feGaussianBlur stdDeviation="0.158"/></filter>
    <filter id="b2485_1" x="-150%" y="-150%" width="400%" height="400%"><feGaussianBlur stdDeviation="1.272"/></filter>
    <filter id="b2485_2" x="-150%" y="-150%" width="400%" height="400%"><feGaussianBlur stdDeviation="0.666"/></filter>
    <filter id="b2485_3" x="-150%" y="-150%" width="400%" height="400%"><feGaussianBlur stdDeviation="1.419"/></filter>
  </defs>
  <rect width="1280" height="720" fill="url(#base_2485)"/>
  <g transform="translate(702.1,451.0) rotate(198.7) scale(58.98)" filter="url(#b2485_0)" opacity="0.424">
      <line x1="3" y1="9" x2="9" y2="3" stroke="#FFF6E8" stroke-width="0.9" stroke-linecap="round"/>
    </g>
  <g transform="translate(540.2,309.8) rotate(286.3) scale(36.53)" filter="url(#b2485_1)" opacity="0.132">
      <line x1="3" y1="9" x2="9" y2="3" stroke="#FFF6E8" stroke-width="0.9" stroke-linecap="round"/>
    </g>
  <g transform="translate(919.7,348.8) rotate(332.6) scale(41.78)" filter="url(#b2485_2)" opacity="0.186">
      <line x1="3" y1="9" x2="9" y2="3" stroke="#FFF6E8" stroke-width="0.9" stroke-linecap="round"/>
    </g>
  <g transform="translate(1015.8,439.1) rotate(236.6) scale(34.66)" filter="url(#b2485_3)" opacity="0.194">
      <line x1="3" y1="9" x2="9" y2="3" stroke="#FFF6E8" stroke-width="0.9" stroke-linecap="round"/>
    </g>
  <rect width="1280" height="720" fill="url(#sheen_2485)"/>
  <rect width="1280" height="720" fill="url(#vignette_2485)"/>
  <rect x="28" y="28" width="1224" height="664" fill="none" stroke="rgba(255,255,255,0.1)" stroke-width="1"/>
  <rect width="1280" height="720" filter="url(#grain_2485)" opacity="0.5"/>
  
</svg>