<svg xmlns="http://www.w3.org/2000/svg" viewBox="0 0 1280 720" width="1280" height="720">
  <defs>
    <linearGradient id="base_2422" x1="0%" y1="0%" x2="100%" y2="100%">
      <stop offset="0%" stop-color="rgb(16,16,16)"/>
      <stop offset="100%" stop-color="#000000"/>
    </linearGradient>
    <radialGradient id="vignette_2422" cx="50%" cy="46%" r="85%">
      <stop offset="0%" stop-color="#000000" stop-opacity="0"/>
      <stop offset="70%" stop-color="#000000" stop-opacity="0.1"/>
      <stop offset="100%" stop-color="#000000" stop-opacity="0.6"/>
    </radialGradient>
    <linearGradient id="sheen_2422" x1="0%" y1="0%" x2="97%" y2="32%">
      <stop offset="0%" stop-color="#FFF6E8" stop-opacity="0.1"/>
      <stop offset="45%" stop-color="#FFF6E8" stop-opacity="0"/>
      <stop offset="100%" stop-color="#FFF6E8" stop-opacity="0.14"/>
    </linearGradient>
    <filter id="grain_2422">
      <feTurbulence type="fractalNoise" baseFrequency="0.85" numOctaves="2" seed="2422" stitchTiles="stitch" result="noise"/>
      <feColorMatrix in="noise" type="matrix" values="0 0 0 0 1  0 0 0 0 1  0 0 0 0 1  0 0 0 0.06 0"/>
    </filter>
    <filter id="b2422_0" x="-150%" y="-150%" width="400%" height="400%"><feGaussianBlur stdDeviation="0.085"/></filter>
    <filter id="b2422_1" x="-150%" y="-150%" width="400%" height="400%"><feGaussianBlur stdDeviation="1.664"/></filter>
    <filter id="b2422_2" x="-150%" y="-150%" width="400%" height="400%"><feGaussianBlur stdDeviation="0.912"/></filter>
    <filter id="b2422_3" x="-150%" y="-150%" width="400%" height="400%"><feGaussianBlur stdDeviation="0.893"/></filter>
  </defs>
  <rect width="1280" height="720" fill="url(#base_2422)"/>
  <g transform="translate(983.6,307.9) rotate(199.2) scale(54.45)" filter="url(#b2422_0)" opacity="0.648">
      <line x1="3" y1="9" x2="9" y2="3" stroke="#FFF6E8" stroke-width="0.9" stroke-linecap="round"/>
    </g>
  <g transform="translate(453.5,295.0) rotate(24.9) scale(22.98)" filter="url(#b2422_1)" opacity="0.134">
      <line x1="3" y1="9" x2="9" y2="3" stroke="#FFF6E8" stroke-width="0.9" stroke-linecap="round"/>
    </g>
  <g transform="translate(853.3,317.5) rotate(232.9) scale(46.98)" filter="url(#b2422_2)" opacity="0.161">
      <line x1="3" y1="9" x2="9" y2="3" stroke="#FFF6E8" stroke-width="0.9" stroke-linecap="round"/>
    </g>
  <g transform="translate(564.1,595.6) rotate(121.9) scale(46.16)" filter="url(#b2422_3)" opacity="0.223">
      <line x1="3" y1="9" x2="9" y2="3" stroke="#FFF6E8" stroke-width="0.9" stroke-linecap="round"/>
    </g>
  <rect width="1280" height="720" fill="url(#sheen_2422)"/>
  <rect width="1280" height="720" fill="url(#vignette_2422)"/>
  <rect x="28" y="28" width="1224" height="664" fill="none" stroke="rgba(255,255,255,0.1)" stroke-width="1"/>
  <rect width="1280" height="720" filter="url(#grain_2422)" opacity="0.5"/>
  
</svg>