<svg xmlns="http://www.w3.org/2000/svg" viewBox="0 0 1280 720" width="1280" height="720">
  <defs>
    <linearGradient id="base_2405" x1="0%" y1="0%" x2="100%" y2="100%">
      <stop offset="0%" stop-color="rgb(26,26,26)"/>
      <stop offset="100%" stop-color="#000000"/>
    </linearGradient>
    <radialGradient id="vignette_2405" cx="50%" cy="46%" r="85%">
      <stop offset="0%" stop-color="#000000" stop-opacity="0"/>
      <stop offset="70%" stop-color="#000000" stop-opacity="0.1"/>
      <stop offset="100%" stop-color="#000000" stop-opacity="0.6"/>
    </radialGradient>
    <linearGradient id="sheen_2405" x1="0%" y1="0%" x2="1%" y2="41%">
      <stop offset="0%" stop-color="#FFF6E8" stop-opacity="0.1"/>
      <stop offset="45%" stop-color="#FFF6E8" stop-opacity="0"/>
      <stop offset="100%" stop-color="#FFF6E8" stop-opacity="0.14"/>
    </linearGradient>
    <filter id="grain_2405">
      <feTurbulence type="fractalNoise" baseFrequency="0.85" numOctaves="2" seed="2405" stitchTiles="stitch" result="noise"/>
      <feColorMatrix in="noise" type="matrix" values="0 0 0 0 1  0 0 0 0 1  0 0 0 0 1  0 0 0 0.06 0"/>
    </filter>
    <filter id="b2405_0" x="-150%" y="-150%" width="400%" height="400%"><feGaussianBlur stdDeviation="0.158"/></filter>
    <filter id="b2405_1" x="-150%" y="-150%" width="400%" height="400%"><feGaussianBlur stdDeviation="1.037"/></filter>
    <filter id="b2405_2" x="-150%" y="-150%" width="400%" height="400%"><feGaussianBlur stdDeviation="1.140"/></filter>
    <filter id="b2405_3" x="-150%" y="-150%" width="400%" height="400%"><feGaussianBlur stdDeviation="1.022"/></filter>
  </defs>
  <rect width="1280" height="720" fill="url(#base_2405)"/>
  <g transform="translate(1074.7,196.7) rotate(1.5) scale(78.68)" filter="url(#b2405_0)" opacity="0.488">
      <line x1="3" y1="9" x2="9" y2="3" stroke="#FFF6E8" stroke-width="0.9" stroke-linecap="round"/>
    </g>
  <g transform="translate(626.6,346.6) rotate(58.2) scale(41.41)" filter="url(#b2405_1)" opacity="0.169">
      <line x1="3" y1="9" x2="9" y2="3" stroke="#FFF6E8" stroke-width="0.9" stroke-linecap="round"/>
    </g>
  <g transform="translate(339.3,154.2) rotate(72.9) scale(50.11)" filter="url(#b2405_2)" opacity="0.145">
      <line x1="3" y1="9" x2="9" y2="3" stroke="#FFF6E8" stroke-width="0.9" stroke-linecap="round"/>
    </g>
  <g transform="translate(1007.3,246.8) rotate(108.0) scale(43.38)" filter="url(#b2405_3)" opacity="0.203">
      <line x1="3" y1="9" x2="9" y2="3" stroke="#FFF6E8" stroke-width="0.9" stroke-linecap="round"/>
    </g>
  <rect width="1280" height="720" fill="url(#sheen_2405)"/>
  <rect width="1280" height="720" fill="url(#vignette_2405)"/>
  <rect x="28" y="28" width="1224" height="664" fill="none" stroke="rgba(255,255,255,0.1)" stroke-width="1"/>
  <rect width="1280" height="720" filter="url(#grain_2405)" opacity="0.5"/>
  
</svg>