<svg xmlns="http://www.w3.org/2000/svg" viewBox="0 0 1280 720" width="1280" height="720">
  <defs>
    <linearGradient id="base_2291" x1="0%" y1="0%" x2="100%" y2="100%">
      <stop offset="0%" stop-color="rgb(22,22,22)"/>
      <stop offset="100%" stop-color="#000000"/>
    </linearGradient>
    <radialGradient id="vignette_2291" cx="50%" cy="46%" r="85%">
      <stop offset="0%" stop-color="#000000" stop-opacity="0"/>
      <stop offset="70%" stop-color="#000000" stop-opacity="0.1"/>
      <stop offset="100%" stop-color="#000000" stop-opacity="0.6"/>
    </radialGradient>
    <linearGradient id="sheen_2291" x1="0%" y1="0%" x2="78%" y2="91%">
      <stop offset="0%" stop-color="#FFF6E8" stop-opacity="0.1"/>
      <stop offset="45%" stop-color="#FFF6E8" stop-opacity="0"/>
      <stop offset="100%" stop-color="#FFF6E8" stop-opacity="0.14"/>
    </linearGradient>
    <filter id="grain_2291">
      <feTurbulence type="fractalNoise" baseFrequency="0.85" numOctaves="2" seed="2291" stitchTiles="stitch" result="noise"/>
      <feColorMatrix in="noise" type="matrix" values="0 0 0 0 1  0 0 0 0 1  0 0 0 0 1  0 0 0 0.06 0"/>
    </filter>
    <filter id="b2291_0" x="-150%" y="-150%" width="400%" height="400%"><feGaussianBlur stdDeviation="0.065"/></filter>
    <filter id="b2291_1" x="-150%" y="-150%" width="400%" height="400%"><feGaussianBlur stdDeviation="1.255"/></filter>
    <filter id="b2291_2" x="-150%" y="-150%" width="400%" height="400%"><feGaussianBlur stdDeviation="0.884"/></filter>
    <filter id="b2291_3" x="-150%" y="-150%" width="400%" height="400%"><feGaussianBlur stdDeviation="1.753"/></filter>
  </defs>
  <rect width="1280" height="720" fill="url(#base_2291)"/>
  <g transform="translate(1028.1,313.4) rotate(359.5) scale(85.48)" filter="url(#b2291_0)" opacity="0.533">
      <line x1="3" y1="9" x2="9" y2="3" stroke="#FFF6E8" stroke-width="0.9" stroke-linecap="round"/>
    </g>
  <g transform="translate(705.7,581.4) rotate(264.4) scale(41.78)" filter="url(#b2291_1)" opacity="0.206">
      <line x1="3" y1="9" x2="9" y2="3" stroke="#FFF6E8" stroke-width="0.9" stroke-linecap="round"/>
    </g>
  <g transform="translate(879.1,210.9) rotate(166.6) scale(36.83)" filter="url(#b2291_2)" opacity="0.168">
      <line x1="3" y1="9" x2="9" y2="3" stroke="#FFF6E8" stroke-width="0.9" stroke-linecap="round"/>
    </g>
  <g transform="translate(745.6,474.4) rotate(232.7) scale(27.71)" filter="url(#b2291_3)" opacity="0.225">
      <line x1="3" y1="9" x2="9" y2="3" stroke="#FFF6E8" stroke-width="0.9" stroke-linecap="round"/>
    </g>
  <rect width="1280" height="720" fill="url(#sheen_2291)"/>
  <rect width="1280" height="720" fill="url(#vignette_2291)"/>
  <rect x="28" y="28" width="1224" height="664" fill="none" stroke="rgba(255,255,255,0.1)" stroke-width="1"/>
  <rect width="1280" height="720" filter="url(#grain_2291)" opacity="0.5"/>
  
</svg>