<svg xmlns="http://www.w3.org/2000/svg" viewBox="0 0 1280 720" width="1280" height="720">
  <defs>
    <linearGradient id="base_2308" x1="0%" y1="0%" x2="100%" y2="100%">
      <stop offset="0%" stop-color="rgb(27,27,27)"/>
      <stop offset="100%" stop-color="#000000"/>
    </linearGradient>
    <radialGradient id="vignette_2308" cx="50%" cy="46%" r="85%">
      <stop offset="0%" stop-color="#000000" stop-opacity="0"/>
      <stop offset="70%" stop-color="#000000" stop-opacity="0.1"/>
      <stop offset="100%" stop-color="#000000" stop-opacity="0.6"/>
    </radialGradient>
    <linearGradient id="sheen_2308" x1="0%" y1="0%" x2="92%" y2="24%">
      <stop offset="0%" stop-color="#FFF6E8" stop-opacity="0.1"/>
      <stop offset="45%" stop-color="#FFF6E8" stop-opacity="0"/>
      <stop offset="100%" stop-color="#FFF6E8" stop-opacity="0.14"/>
    </linearGradient>
    <filter id="grain_2308">
      <feTurbulence type="fractalNoise" baseFrequency="0.85" numOctaves="2" seed="2308" stitchTiles="stitch" result="noise"/>
      <feColorMatrix in="noise" type="matrix" values="0 0 0 0 1  0 0 0 0 1  0 0 0 0 1  0 0 0 0.06 0"/>
    </filter>
    <filter id="b2308_0" x="-150%" y="-150%" width="400%" height="400%"><feGaussianBlur stdDeviation="0.092"/></filter>
    <filter id="b2308_1" x="-150%" y="-150%" width="400%" height="400%"><feGaussianBlur stdDeviation="1.260"/></filter>
    <filter id="b2308_2" x="-150%" y="-150%" width="400%" height="400%"><feGaussianBlur stdDeviation="1.263"/></filter>
    <filter id="b2308_3" x="-150%" y="-150%" width="400%" height="400%"><feGaussianBlur stdDeviation="2.221"/></filter>
  </defs>
  <rect width="1280" height="720" fill="url(#base_2308)"/>
  <g transform="translate(509.3,310.0) rotate(357.0) scale(67.67)" filter="url(#b2308_0)" opacity="0.561">
      <line x1="3" y1="9" x2="9" y2="3" stroke="#FFF6E8" stroke-width="0.9" stroke-linecap="round"/>
    </g>
  <g transform="translate(752.1,425.9) rotate(88.7) scale(27.71)" filter="url(#b2308_1)" opacity="0.230">
      <line x1="3" y1="9" x2="9" y2="3" stroke="#FFF6E8" stroke-width="0.9" stroke-linecap="round"/>
    </g>
  <g transform="translate(697.2,475.1) rotate(312.2) scale(41.44)" filter="url(#b2308_2)" opacity="0.220">
      <line x1="3" y1="9" x2="9" y2="3" stroke="#FFF6E8" stroke-width="0.9" stroke-linecap="round"/>
    </g>
  <g transform="translate(995.4,475.7) rotate(178.7) scale(22.97)" filter="url(#b2308_3)" opacity="0.133">
      <line x1="3" y1="9" x2="9" y2="3" stroke="#FFF6E8" stroke-width="0.9" stroke-linecap="round"/>
    </g>
  <rect width="1280" height="720" fill="url(#sheen_2308)"/>
  <rect width="1280" height="720" fill="url(#vignette_2308)"/>
  <rect x="28" y="28" width="1224" height="664" fill="none" stroke="rgba(255,255,255,0.1)" stroke-width="1"/>
  <rect width="1280" height="720" filter="url(#grain_2308)" opacity="0.5"/>
  
</svg>